<svg width="3551" height="700" viewBox="0 0 3551 700" fill="none" xmlns="http://www.w3.org/2000/svg">
<path d="M1385.45 540.304C1255.68 635.963 1067.57 687 905.618 687C678.53 687 474.094 603.006 319.431 463.315C307.28 452.332 318.166 437.36 332.75 445.918C499.665 543.026 706.044 601.456 919.227 601.456C1063 601.456 1221.17 571.707 1366.59 509.977C1388.56 500.644 1406.94 524.36 1385.45 540.304Z" fill="#FF9900"/>
<path d="M1439.42 478.579C1422.89 457.387 1329.76 468.563 1287.96 473.525C1275.22 475.082 1273.28 463.999 1284.75 456.027C1358.92 403.822 1480.63 418.887 1494.83 436.385C1509.02 453.984 1491.13 575.984 1421.43 634.214C1410.74 643.157 1400.53 638.393 1405.29 626.538C1420.95 587.456 1456.04 499.866 1439.42 478.579Z" fill="#FF9900"/>
<path d="M1290.88 87.4922V36.7485C1290.88 29.0692 1296.71 23.9189 1303.7 23.9189H1530.89C1538.18 23.9189 1544.02 29.1694 1544.02 36.7485V80.2023C1543.92 87.4922 1537.79 97.0217 1526.91 112.087L1409.18 280.166C1452.93 279.095 1499.1 285.61 1538.77 307.969C1547.71 313.023 1550.14 320.413 1550.82 327.703V381.85C1550.82 389.237 1542.65 397.891 1534.1 393.416C1464.2 356.77 1371.36 352.784 1294.09 393.805C1286.21 398.084 1277.95 389.53 1277.95 382.14V330.717C1277.95 322.452 1278.04 308.358 1286.31 295.818L1422.69 100.225H1304C1296.7 100.225 1290.88 95.0751 1290.88 87.4922ZM462.145 404.113H393.024C386.416 403.627 381.166 398.666 380.68 392.351V37.6236C380.68 30.5265 386.613 24.8903 393.999 24.8903H458.451C465.159 25.1796 470.506 30.3337 470.992 36.7485V83.1168H472.256C489.072 38.3021 520.668 17.4002 563.246 17.4002C606.504 17.4002 633.531 38.3021 652.972 83.1168C669.692 38.3021 707.702 17.4002 748.434 17.4002C777.401 17.4002 809.093 29.3585 828.438 56.1857C850.307 86.0313 845.836 129.385 845.836 167.396L845.743 391.272C845.743 398.37 839.81 404.106 832.424 404.106H763.403C756.503 403.62 750.963 398.077 750.963 391.272V203.27C750.963 188.301 752.32 150.973 749.02 136.779C743.866 112.962 728.407 106.255 708.384 106.255C691.665 106.255 674.163 117.434 667.066 135.322C659.973 153.209 660.655 183.147 660.655 203.27V391.28C660.655 398.377 654.722 404.113 647.336 404.113H578.316C571.315 403.627 565.875 398.084 565.875 391.28L565.779 203.27C565.779 163.706 572.294 105.476 523.2 105.476C473.528 105.476 475.471 162.249 475.471 203.27V391.28C475.46 398.377 469.531 404.113 462.145 404.113ZM1739.6 17.4039C1842.16 17.4039 1897.67 105.476 1897.67 217.468C1897.67 325.663 1836.33 411.503 1739.6 411.503C1638.89 411.503 1584.06 323.431 1584.06 213.679C1584.06 103.24 1639.57 17.4039 1739.6 17.4039ZM1740.18 89.8246C1689.25 89.8246 1686.04 159.234 1686.04 202.492C1686.04 245.849 1685.35 338.393 1739.6 338.393C1793.16 338.393 1795.69 263.736 1795.69 218.239C1795.69 188.297 1794.42 152.523 1785.39 124.138C1777.61 99.4468 1762.15 89.8246 1740.18 89.8246ZM2030.65 404.113H1961.82C1954.92 403.627 1949.38 398.088 1949.38 391.28L1949.29 36.4593C1949.87 29.948 1955.61 24.8903 1962.61 24.8903H2026.67C2032.69 25.1796 2037.65 29.2658 2039.01 34.8055V89.0459H2040.28C2059.62 40.538 2086.74 17.4002 2134.47 17.4002C2165.48 17.4002 2195.72 28.5798 2215.16 59.2003C2233.24 87.5849 2233.24 135.318 2233.24 169.631V392.926C2232.47 399.148 2226.73 404.11 2219.92 404.11H2150.61C2144.29 403.624 2139.05 398.955 2138.36 392.926V200.256C2138.36 161.47 2142.83 104.697 2095.1 104.697C2078.29 104.697 2062.83 115.973 2055.15 133.082C2045.43 154.759 2044.17 176.343 2044.17 200.256V391.276C2044.07 398.377 2038.04 404.113 2030.65 404.113ZM2276.5 375.918C2276.5 358.03 2291.76 343.643 2310.53 343.643C2329.29 343.643 2344.55 358.027 2344.55 375.918C2344.55 393.709 2329.29 408.288 2310.53 408.288C2291.76 408.288 2276.5 393.709 2276.5 375.918ZM3008.8 404.206C3001.6 403.917 2995.96 398.377 2995.96 391.376V36.6484C2996.35 30.33 3001.7 25.3724 3008.31 24.983H3033.68C3040.68 24.983 3046.32 30.037 3046.9 36.6484V88.3636C3064.98 47.3422 3098.62 15.2607 3141.1 15.2607H3146.25C3191.36 15.2607 3224.31 48.5065 3236.56 96.8215C3255.71 49.0886 3291.68 15.2607 3339.12 15.2607H3344.37C3377.91 15.2607 3410.18 36.8412 3426.9 69.7013C3443.04 101.101 3442.45 142.901 3442.45 177.997L3442.36 391.376C3442.45 398.18 3436.91 403.72 3430.01 404.206H3399.68C3393.07 403.917 3387.72 399.252 3386.85 393.126V177.997C3386.85 152.623 3388.11 125.696 3377.81 102.561C3367.31 78.9379 3347.18 64.1616 3325.6 63.09C3301.5 64.258 3279.33 81.8524 3264.94 105.572C3246.28 136.193 3246.96 163.803 3246.96 199.577V393.319C3246.08 399.148 3240.93 403.72 3234.61 404.206H3204.48C3197.29 403.917 3191.55 398.377 3191.55 391.376L3191.35 163.803C3191.35 142.901 3190.09 118.306 3180.46 99.5432C3169.28 78.1555 3149.26 64.1579 3128.26 63.0863C3106.49 64.3507 3084.52 80.9736 3071.49 100.322C3054.67 125.013 3051.47 155.537 3051.47 186.937V391.373C3051.47 398.177 3045.92 403.716 3039.02 404.202L3008.8 404.206ZM2800.57 411.596C2702.48 411.596 2658.54 311.566 2658.54 211.532C2658.54 106.351 2710.16 15.2607 2808.93 15.2607H2814.18C2910.22 15.2607 2958.06 112.28 2958.06 212.31C2958.06 318.27 2905.07 411.596 2805.72 411.596H2800.57ZM2807.76 363.084C2840.03 362.02 2865.5 341.993 2880.57 308.647C2894.09 278.706 2896.71 244.388 2896.71 211.532C2896.71 175.761 2892.82 138.429 2876.01 107.808C2860.94 81.0737 2835.08 64.0615 2807.67 63.09C2777.14 64.1616 2749.82 84.867 2736.12 116.752C2723.77 144.362 2719.98 181.011 2719.98 211.535C2719.98 245.853 2724.45 285.513 2738.64 315.359C2752.45 343.643 2778.99 362.016 2807.76 363.084ZM2494.06 361.531C2538.1 360.174 2561.23 324.885 2570.76 279.191C2572.71 273.455 2577.08 269.08 2583.5 269.08L2612.57 268.983C2619.47 269.276 2625.79 274.527 2625.2 280.941C2611.79 358.809 2564.83 411.592 2497.95 411.592H2492.7C2395.3 411.592 2353.3 313.794 2353.3 214.543C2353.3 116.066 2395.88 15.257 2493.29 15.257H2498.54C2566.2 15.257 2614.41 67.3616 2624.91 145.229C2624.91 151.062 2619.47 156.12 2613.05 156.798L2582.63 156.409C2576.21 155.534 2572.03 150.09 2571.06 143.969C2563.77 100.515 2538.78 65.9081 2497.18 64.5472C2430.97 66.6904 2412.11 148.151 2412.11 210.853C2412.11 271.223 2427.86 359.391 2494.06 361.531ZM1232.84 339.075C1220.2 321.577 1206.79 307.383 1206.79 275.012V167.303C1206.79 121.709 1209.99 79.813 1176.36 48.4138C1149.82 22.9437 1105.88 14 1072.25 14C1006.53 14 933.036 38.4949 917.678 119.767C916.024 128.417 922.342 132.985 927.979 134.25L994.956 141.443C1001.27 141.15 1005.85 135.029 1007.01 128.807C1012.75 100.811 1036.17 87.2994 1062.52 87.2994C1076.81 87.2994 1092.95 92.5499 1101.31 105.283C1111.03 119.477 1109.77 138.918 1109.77 155.345V164.288C1069.71 168.857 1017.32 171.775 979.79 188.301C936.437 206.967 906.105 245.171 906.105 301.261C906.105 373.103 951.306 408.971 1009.54 408.971C1058.63 408.971 1085.56 397.405 1123.47 358.709C1136.02 376.889 1140.19 385.736 1163.14 404.792C1168.29 407.513 1174.9 407.221 1179.47 403.142L1179.56 403.335C1193.37 391.083 1218.44 369.214 1232.54 357.452C1238.18 352.784 1237.21 345.297 1232.84 339.075ZM1096.84 307.969C1085.85 327.414 1068.35 339.368 1049.01 339.368C1022.47 339.368 1006.91 319.148 1006.91 289.303C1006.91 230.394 1059.7 219.7 1109.77 219.7V234.67C1109.77 261.597 1110.45 284.056 1096.84 307.969ZM326.725 339.075C314.088 321.577 300.677 307.383 300.677 275.012V167.303C300.677 121.709 303.884 79.813 270.249 48.4138C243.711 22.9437 199.768 14 166.136 14C100.42 14 27.0238 38.4949 11.5689 119.767C10.0116 128.417 16.2336 132.985 21.8697 134.25L88.9471 141.443C95.1691 141.15 99.7373 135.029 100.905 128.807C106.642 100.811 130.169 87.2994 156.51 87.2994C170.704 87.2994 186.842 92.5499 195.3 105.283C204.922 119.477 203.657 138.918 203.657 155.345V164.288C163.607 168.857 111.21 171.775 73.6851 188.301C30.4277 206.967 0 245.171 0 301.261C0 373.103 45.3004 408.971 103.434 408.971C152.624 408.971 179.455 397.405 217.369 358.709C230.006 376.889 234.089 385.736 257.03 404.792C262.184 407.513 268.792 407.221 273.36 403.142L273.557 403.335C287.361 391.083 312.438 369.214 326.536 357.452C332.172 352.784 331.197 345.297 326.725 339.075ZM190.728 307.969C179.741 327.414 162.343 339.368 142.902 339.368C116.364 339.368 100.905 319.148 100.905 289.303C100.905 230.394 153.689 219.7 203.657 219.7V234.67C203.657 261.597 204.336 284.056 190.728 307.969ZM3514.2 28.7763C3530.82 28.7763 3544.63 42.1918 3544.63 59.1076C3544.63 75.6341 3531.02 89.5353 3514.2 89.5353C3497.48 89.5353 3483.87 75.927 3483.87 59.1076C3483.87 41.9953 3497.67 28.7763 3514.2 28.7763ZM3514.3 22.9437C3494.85 22.9437 3478.04 38.6915 3478.04 59.204C3478.04 79.3272 3494.56 95.3643 3514.3 95.3643C3534.13 95.3643 3550.46 79.1307 3550.46 59.204C3550.46 38.6915 3533.84 22.9437 3514.3 22.9437ZM3500.69 79.5201H3508.47V63.1901H3515.66C3518.48 63.1901 3519.26 64.3581 3519.84 66.6904C3519.84 67.2726 3521.2 77.5808 3521.3 79.5201H3529.95C3528.88 77.5771 3528.3 72.0336 3527.91 68.7298C3527.13 63.5757 3526.75 59.979 3521.2 59.5934C3524.02 58.6219 3528.88 57.0645 3528.88 49.5781C3528.88 38.8843 3519.45 38.8843 3514.59 38.8843H3500.69V79.5201ZM3508.27 45.3992H3514.78C3516.92 45.3992 3520.81 45.3992 3520.81 50.9389C3520.81 53.0784 3519.84 56.6752 3514.59 56.6752H3508.27V45.3992Z" fill="#221F1F"/>
</svg>
