<svg width="18" height="18" viewBox="0 0 18 18" fill="none" xmlns="http://www.w3.org/2000/svg">
<path fill-rule="evenodd" clip-rule="evenodd" d="M4.08141 3.22105L4.84565 16.1507C4.85715 16.3434 4.94128 16.5244 5.08085 16.6568C5.22042 16.7892 5.40492 16.863 5.59671 16.8632H12.4033C12.5951 16.863 12.7796 16.7892 12.9192 16.6568C13.0587 16.5244 13.1428 16.3434 13.1544 16.1507L13.9186 3.22105H4.08141ZM15.0508 3.22105L14.2819 16.218C14.2533 16.7001 14.043 17.153 13.6938 17.4842C13.3447 17.8154 12.8831 17.9999 12.4033 18H5.59671C5.11694 17.9999 4.65532 17.8154 4.30616 17.4842C3.957 17.153 3.74666 16.7001 3.71812 16.218L2.94918 3.22105H1V2.55789C1 2.43227 1.04958 2.31178 1.13783 2.22295C1.22608 2.13412 1.34578 2.08421 1.47059 2.08421H16.5294C16.6542 2.08421 16.7739 2.13412 16.8622 2.22295C16.9504 2.31178 17 2.43227 17 2.55789V3.22105H15.0508ZM10.8824 0C11.0072 0 11.1269 0.049906 11.2151 0.138739C11.3034 0.227572 11.3529 0.348055 11.3529 0.473684V1.13684H6.64706V0.473684C6.64706 0.348055 6.69664 0.227572 6.78489 0.138739C6.87314 0.049906 6.99284 0 7.11765 0H10.8824ZM6.64706 5.68421H7.77647L8.24706 14.2105H7.11765L6.64706 5.68421ZM10.2235 5.68421H11.3529L10.8824 14.2105H9.75294L10.2235 5.68421Z" fill="#D92D20"/>
</svg>
