<svg width="2655" height="700" viewBox="0 0 2655 700" fill="none" xmlns="http://www.w3.org/2000/svg">
<g clip-path="url(#clip0_2128_2927)">
<path d="M2654.48 121.306C2654.19 120.316 2653.89 119.326 2653.49 118.337C2419.09 118.436 2184.79 118.337 1950.48 118.436C1949.89 119.129 1949.49 119.821 1949.4 120.712C1949.4 302.491 1949.4 484.17 1949.29 665.949C1950.78 675.646 1956.12 684.453 1963.25 691.084C1963.55 691.183 1964.24 691.279 1964.53 691.38C1968.2 695.237 1973.44 697.12 1978.39 698.9C1982.05 698.703 1985.61 700.286 1989.27 699.89H2280.17C2282.94 699.791 2285.81 700.286 2288.48 699.198C2288.58 698.804 2288.68 698.11 2288.78 697.714C2288.88 697.219 2288.98 696.13 2289.08 695.538C2295.31 660.707 2301.34 625.775 2307.98 590.944L2308.57 586.491C2281.66 586.39 2254.64 586.491 2227.73 586.39C2221.2 586.193 2214.47 586.39 2207.94 585.598C2196.76 585.103 2185.48 585.499 2174.3 584.411C2160.45 584.411 2146.7 583.124 2132.84 583.124C2121.96 582.035 2110.98 582.432 2099.99 581.937C2092.87 581.049 2085.55 581.443 2078.33 581.145C2066.55 579.859 2054.58 580.751 2042.8 579.463C2030.34 579.564 2017.87 578.474 2005.4 578.176C2005.5 578.077 2005.6 577.681 2005.6 577.582C2009.76 577.681 2013.81 577.385 2017.97 577.286C2027.17 576.098 2036.47 576.891 2045.67 575.603C2055.27 575.603 2064.77 574.318 2074.37 574.318C2082.88 573.129 2091.49 573.823 2099.99 572.635C2109.99 572.635 2119.78 571.349 2129.78 571.249C2137.99 570.161 2146.3 570.754 2154.51 569.666C2164.11 569.765 2173.61 568.281 2183.21 568.381C2192.61 567.29 2202.2 567.586 2211.6 566.596C2210.72 562.938 2210.02 559.276 2209.23 555.613C2208.54 553.338 2205.77 553.832 2203.99 553.534C2182.52 550.465 2161.14 547.4 2139.77 544.432C2141.16 543.341 2143.04 543.836 2144.62 543.639C2161.24 542.352 2177.77 540.867 2194.39 539.681C2198.15 539.484 2201.81 538.79 2205.57 538.691C2203.89 533.547 2202.9 527.905 2200.62 523.157C2165.1 517.714 2129.58 512.865 2094.16 507.026C2103.36 505.542 2112.66 504.85 2121.86 503.86L2122.65 503.563C2152.04 500.493 2181.53 497.03 2210.91 494.162C2248.21 493.965 2285.42 494.061 2322.72 494.162C2323.91 493.965 2325.99 494.556 2326.19 492.875C2329.25 476.845 2332.22 460.815 2335.29 444.783C2339.54 422.52 2346.27 400.551 2356.66 380.266C2372.99 347.611 2398.81 319.904 2430.27 301.499C2459.66 284.281 2493.7 275.969 2527.54 274.386C2538.52 273.396 2549.6 273.693 2560.49 275.078C2567.61 276.761 2574.93 278.74 2580.57 283.588C2585.22 287.349 2587.99 292.89 2590.07 298.432C2594.63 311.592 2597.2 325.248 2599.37 339.003C2599.47 344.544 2600.46 350.778 2597.49 355.825C2594.72 360.773 2589.18 363.148 2583.94 364.632C2564.84 369.58 2544.85 364.928 2525.76 369.58C2510.03 372.944 2495.38 381.651 2485.39 394.219C2473.61 408.863 2467.38 427.069 2463.92 445.28C2461.25 461.508 2457.88 477.736 2455.21 494.063C2474.01 494.164 2492.91 493.964 2511.81 494.164C2519.33 494.164 2527.04 498.319 2530.11 505.443C2534.07 514.548 2533.18 524.84 2531.89 534.437C2530.31 545.223 2527.74 555.909 2522.89 565.805C2518.83 574.216 2512.1 581.935 2502.9 584.904C2498.15 586.784 2493.01 586.388 2487.96 586.388C2471.34 586.388 2454.71 586.585 2438.09 586.388C2435.42 598.561 2433.64 611.028 2431.26 623.397C2426.91 647.442 2422.66 671.587 2418.3 695.733C2418.2 696.525 2418.1 698.206 2418.1 699.097C2425.92 699.493 2433.74 699.097 2441.55 699.294C2499.54 699.294 2557.62 699.193 2615.7 699.294C2621.93 699.493 2628.27 698.009 2633.71 694.94C2636.97 693.754 2638.95 690.883 2641.82 689.301C2644.59 687.717 2645.38 684.454 2647.76 682.374C2650.33 677.822 2653 673.074 2653.2 667.728C2653.5 667.728 2654.29 667.629 2654.68 667.531C2654.38 485.457 2654.68 303.381 2654.48 121.306Z" fill="url(#paint0_linear_2128_2927)" stroke="#FCD109" stroke-width="0.094"/>
<path d="M2041.61 1.57103C2050.02 -1.10073 2058.83 0.680441 2067.44 0.0867157C2229.02 0.18567 2390.6 0.0867157 2552.18 0.0867157C2561.77 -0.309101 2570.18 5.13338 2579.09 7.9041C2586.21 10.7738 2593.63 13.0497 2600.76 16.1173C2602.24 16.711 2603.33 17.9974 2604.42 19.0859C2604.32 32.1479 2604.42 45.3088 2604.42 58.4697C2604.52 61.9331 2603.92 65.4954 2605.11 68.8599C2607.19 69.1567 2608.28 70.74 2609.66 72.0264C2616.19 74.995 2621.73 79.8438 2627.67 83.802C2636.57 90.135 2646.07 95.6765 2654.78 102.207C2655.17 104.78 2654.88 107.452 2654.09 109.827C2653.2 112.598 2653.79 115.566 2653.49 118.337C2419.09 118.436 2184.79 118.337 1950.48 118.436C1949.99 115.17 1950.88 111.905 1949.49 108.837C1949.3 106.265 1948.41 102.9 1950.88 101.119C1960.77 94.1922 1971.26 87.958 1980.96 80.6354C1986.99 76.7762 1992.83 72.8181 1998.67 68.8599C1999.86 66.8808 1999.46 64.4069 1999.46 62.23C1999.46 47.8816 1999.46 33.5332 1999.56 19.1849C2002.92 14.8309 2008.76 14.3361 2013.41 12.1591C2022.81 8.59678 2032.31 5.13338 2041.61 1.57103ZM2042.21 3.25325C2029.54 8.10201 2016.78 12.7529 2004.11 17.6016C2002.43 17.8985 2001.54 19.3828 2000.65 20.6692C2000.75 21.4608 2000.85 22.8462 2000.85 23.6378C2000.75 35.5123 2000.85 47.3868 2000.75 59.2613C2000.85 62.23 2000.45 65.1986 2001.54 67.8703C2000.25 69.1567 1998.87 70.4432 1997.28 71.4327C1982.94 80.7344 1969.09 90.8277 1954.74 100.03C1952.26 101.515 1949.49 103.494 1950.29 106.759C1949.79 108.541 1950.68 110.025 1952.56 109.53C1983.63 109.332 2014.6 109.728 2045.67 109.233C2091.88 109.233 2137.99 109.332 2184.2 109.233L2184.89 108.936C2186.97 109.431 2189.04 109.233 2191.22 109.233C2274.93 109.233 2358.64 109.332 2442.44 109.233C2468.76 109.332 2495.18 109.233 2521.6 109.233C2565.13 109.233 2608.77 109.629 2652.31 109.431C2653.59 109.134 2653.99 108.244 2653.49 106.66C2653.39 105.077 2653.99 102.9 2652.31 101.911C2645.38 98.6451 2639.44 93.5984 2632.81 89.6403C2630.44 87.6612 2627.37 86.5727 2625.59 83.9009C2618.76 80.0417 2612.43 75.2919 2605.7 71.0369C2604.41 70.2452 2603.43 68.9588 2602.34 67.8703C2602.93 65.7923 2603.13 63.5164 2603.13 61.3394C2603.03 48.7722 2603.13 36.205 2603.03 23.6378C2603.33 21.6587 2603.23 19.3828 2601.45 18.0964C2589.57 13.8414 2577.8 9.28946 2566.02 4.93547C2562.36 3.1543 2558.31 2.16475 2554.35 1.57103H2048.64C2046.46 1.66998 2044.39 2.75848 2042.21 3.25325Z" fill="#F8F3B5" stroke="#F8F3B5" stroke-width="0.094"/>
<path d="M2000.85 23.6377C2009.56 27.299 2018.86 29.377 2027.66 32.9394C2032.41 34.8195 2033.9 39.9651 2035.97 44.1212C2033.89 46.1992 2031.42 47.8815 2028.95 49.4647C2019.84 55.5999 2010.54 61.5371 2001.54 67.8702C2000.45 65.1985 2000.85 62.2298 2000.75 59.2612C2000.85 47.3867 2000.75 35.5122 2000.85 23.6377ZM2576.22 32.9394C2585.02 29.476 2594.23 27.1011 2603.03 23.6377C2603.13 36.2049 2603.03 48.7721 2603.13 61.3392C2603.13 63.5162 2602.93 65.7922 2602.34 67.8702C2594.62 62.5267 2586.81 57.48 2579.09 52.2355C2575.33 49.4647 2571.17 47.3867 2567.81 44.0223C2569.89 39.8662 2571.47 34.8195 2576.22 32.9394Z" fill="#F7B402" stroke="#F7B402" stroke-width="0.094"/>
<path d="M2151.84 36.9969C2162.72 34.4241 2174.89 44.1216 2174 55.5014C2174.1 66.6832 2162.33 75.787 2151.54 73.2142C2147.19 71.7299 2143.03 69.4539 2140.36 65.5947C2136.9 60.3501 2136.11 53.3244 2138.88 47.585C2140.86 42.0436 2146.2 38.2833 2151.84 36.9969ZM2434.13 43.2311C2438.68 38.1844 2445.91 35.3147 2452.64 37.0959C2457.68 38.5802 2462.63 41.8457 2464.81 46.7934C2469.16 55.3035 2465.8 66.7822 2457.29 71.2351C2449.76 75.3912 2440.27 73.4121 2434.53 67.3759C2428.69 60.7459 2428.29 49.861 2434.13 43.2311Z" fill="#BDA727" stroke="#BDA727" stroke-width="0.094"/>
<path d="M2028.95 49.4649C2031.42 47.8817 2033.9 46.1995 2035.98 44.1214L2036.67 44.8141C2037.36 49.9597 2036.86 55.2043 2037.06 60.3499C2036.76 75.7868 2037.36 91.3226 2036.67 106.759C2007.87 106.759 1979.08 106.562 1950.29 106.759C1949.49 103.494 1952.27 101.515 1954.74 100.031C1969.09 90.8278 1982.94 80.7345 1997.29 71.4328C1998.87 70.4432 2000.25 69.1568 2001.54 67.8704C2010.54 61.5374 2019.85 55.6001 2028.95 49.4649ZM2566.82 47.4859C2566.82 46.1995 2567.11 45.111 2567.81 44.0225C2571.17 47.3869 2575.33 49.4649 2579.09 52.2357C2586.8 57.4802 2594.62 62.5269 2602.34 67.8704C2603.43 68.9589 2604.42 70.2453 2605.7 71.037C2612.43 75.292 2618.76 80.0418 2625.59 83.901C2627.37 86.5728 2630.44 87.6613 2632.81 89.6404C2639.44 93.5985 2645.38 98.6452 2652.31 101.911C2653.99 102.9 2653.39 105.077 2653.49 106.66C2624.7 106.759 2596 106.562 2567.21 106.759C2566.72 102.801 2567.01 98.8431 2566.91 94.9839C2566.92 79.1512 2566.72 63.3185 2566.82 47.4859Z" fill="#F7E62D" stroke="#F7E62D" stroke-width="0.094"/>
<path d="M2653.5 106.661C2624.7 106.76 2596.01 106.562 2567.21 106.76C2566.72 102.801 2567.02 98.8433 2566.92 94.9841C2566.92 79.1514 2566.72 63.3187 2566.82 47.486C2566.82 46.1996 2567.12 45.1111 2567.81 44.0226C2569.89 39.8666 2571.47 34.8199 2576.22 32.9398C2585.02 29.4764 2594.22 27.1015 2603.03 23.6381C2603.33 21.659 2603.23 19.383 2601.45 18.0966C2589.57 13.8416 2577.8 9.28972 2566.03 4.93573C2562.36 3.15456 2558.31 2.16501 2554.35 1.57129H2048.64C2046.46 1.67024 2044.38 2.75874 2042.21 3.25351C2029.54 8.10227 2016.78 12.7531 2004.11 17.6019C2002.43 17.8987 2001.54 19.383 2000.65 20.6695C2000.75 21.4611 2000.85 22.8464 2000.85 23.6381C2009.55 27.2994 2018.85 29.3774 2027.66 32.9398C2032.41 34.8199 2033.89 39.9655 2035.97 44.1216L2036.66 44.8143C2037.36 49.9599 2036.86 55.2045 2037.06 60.3501C2036.76 75.7869 2037.36 91.3227 2036.66 106.76C2007.87 106.76 1979.08 106.562 1950.28 106.76C1949.79 108.541 1950.68 110.025 1952.56 109.53C1983.63 109.332 2014.6 109.728 2045.67 109.233C2091.88 109.233 2137.99 109.332 2184.19 109.233L2184.89 108.937C2186.96 109.431 2189.04 109.233 2191.22 109.233C2274.92 109.233 2358.63 109.332 2442.44 109.233C2468.76 109.332 2495.18 109.233 2521.6 109.233C2565.13 109.233 2608.77 109.629 2652.3 109.431C2653.59 109.135 2653.99 108.244 2653.5 106.661ZM2138.88 47.585C2140.86 42.0436 2146.2 38.2833 2151.84 36.9969C2162.72 34.4241 2174.89 44.1216 2174 55.5013C2174.1 66.6831 2162.33 75.7869 2151.54 73.2141C2147.19 71.7298 2143.03 69.4539 2140.36 65.5947C2136.9 60.3501 2136.11 53.3243 2138.88 47.585ZM2434.13 43.231C2438.68 38.1843 2445.91 35.3147 2452.64 37.0958C2457.68 38.5802 2462.63 41.8457 2464.81 46.7934C2469.16 55.3034 2465.8 66.7821 2457.29 71.235C2449.76 75.3911 2440.27 73.412 2434.53 67.3758C2428.69 60.7459 2428.29 49.8609 2434.13 43.231Z" fill="url(#paint1_radial_2128_2927)" stroke="#FCD109" stroke-width="0.094"/>
<path d="M2459.35 150.147C2460.74 150.444 2452.14 141.888 2453.82 141.493C2455.41 141.691 2461.41 137.031 2468.66 140.833C2475.92 144.634 2474.12 153.531 2473.3 156.83C2472.32 160.757 2469.82 163.263 2467.84 165.242C2466.75 166.132 2464.31 167.518 2462.83 167.419C2463.72 162.57 2460.85 161.778 2460.65 156.83L2459.35 150.147Z" fill="url(#paint2_linear_2128_2927)" stroke="#FCD109" stroke-width="0.094"/>
<path d="M2143.05 155.512C2142.85 160.459 2139.98 161.251 2140.87 166.1C2139.39 166.199 2136.95 164.813 2135.86 163.923C2133.88 161.944 2131.38 159.438 2130.4 155.512C2129.58 152.214 2127.78 143.317 2135.04 139.514C2142.29 135.711 2148.29 140.371 2149.88 140.174C2151.56 140.57 2142.96 149.125 2144.35 148.828L2143.05 155.512Z" fill="url(#paint3_linear_2128_2927)" stroke="#FCD109" stroke-width="0.094"/>
<path d="M2446.4 213.537C2447.89 212.245 2448.88 212.245 2450.85 212.245C2438.98 237.973 2425.13 263.701 2404.3 283.733C2402.07 285.721 2399.72 287.565 2397.26 289.252C2394.87 290.997 2392.54 292.634 2390.21 294.301C2387.94 295.881 2385.67 297.47 2383.47 299.128C2377.83 302.195 2372.88 306.452 2366.65 308.331C2355.27 313.773 2343 317.434 2330.64 320.007C2325.79 320.8 2320.84 321.986 2315.89 322.085C2309.76 323.867 2303.23 322.58 2296.99 322.976C2293.53 323.57 2290.46 321.59 2287.1 321.986C2284.18 321.574 2281.27 321.079 2278.38 320.501C2275.44 319.901 2272.52 319.208 2269.63 318.424C2224.27 304.273 2179.74 269.639 2166.77 222.799C2166.19 219.644 2165.89 216.443 2165.89 213.235C2167.27 216.005 2168.71 218.756 2170.2 221.482C2188.65 261.722 2225.26 293.388 2268.51 302.936C2272.02 304.537 2275.82 303.976 2279.18 305.361C2282.25 305.361 2285.22 305.262 2288.19 306.252C2298.38 306.449 2308.57 306.351 2318.76 306.351C2320.15 306.45 2321.43 305.757 2322.82 305.46C2339.8 304.884 2356.45 300.251 2371.94 293.225C2375.04 291.82 2378.1 290.319 2381.1 288.736C2383.73 287.353 2386.29 285.855 2388.78 284.245C2391.24 282.666 2393.62 280.983 2395.93 279.202C2414.24 264.691 2430.08 245.89 2440.83 224.269C2442.87 220.378 2444.74 216.775 2446.4 213.537Z" fill="#BDA727" stroke="#BDA727" stroke-width="0.094"/>
<path d="M2430.27 301.502C2459.66 284.284 2493.7 275.972 2527.54 274.388C2538.52 273.399 2549.6 273.696 2560.49 275.081C2567.61 276.763 2574.93 278.742 2580.57 283.591C2577.7 283.789 2574.93 282.503 2572.06 282.107C2563.95 280.524 2555.54 281.117 2547.33 280.919C2523.48 280.919 2499.44 282.799 2476.38 289.33C2464.31 292.992 2452.24 297.247 2441.26 303.58C2422.26 314.069 2405.14 327.923 2391.29 344.547C2366.55 372.948 2352.01 408.966 2344.98 445.679C2341.62 465.369 2337.76 484.961 2334.69 504.752C2329.74 505.247 2324.7 504.951 2319.75 504.951C2297.98 504.852 2276.21 504.752 2254.45 504.557C2249.8 504.752 2245.24 503.666 2240.59 503.961C2201.02 504.158 2161.44 503.862 2121.86 503.862L2122.65 503.564C2152.04 500.495 2181.52 497.031 2210.91 494.164C2248.21 493.967 2285.42 494.063 2322.72 494.164C2323.9 493.967 2325.98 494.557 2326.18 492.876C2329.25 476.847 2332.22 460.817 2335.28 444.785C2339.54 422.523 2346.27 400.554 2356.66 380.268C2372.98 347.613 2398.81 319.906 2430.27 301.502Z" fill="#0D69B3" stroke="#0D69B3" stroke-width="0.094"/>
<path d="M2476.38 289.33C2499.44 282.799 2523.48 280.919 2547.33 280.919C2555.54 281.117 2563.95 280.523 2572.06 282.106C2574.93 282.502 2577.7 283.789 2580.57 283.591C2585.22 287.351 2587.99 292.892 2590.07 298.434C2594.62 311.595 2597.2 325.25 2599.37 339.005C2599.47 344.547 2600.46 350.781 2597.49 355.827C2594.72 360.775 2589.18 363.15 2583.94 364.634C2564.84 369.582 2544.85 364.93 2525.76 369.582C2510.03 372.946 2495.38 381.653 2485.39 394.221C2473.61 408.866 2467.38 427.071 2463.92 445.282C2461.24 461.51 2457.88 477.738 2455.21 494.065C2454.02 497.728 2453.33 501.686 2452.64 505.546C2471.33 505.844 2490.04 505.546 2508.74 505.743C2515.86 505.546 2522.98 505.94 2530.11 505.445C2534.07 514.55 2533.18 524.842 2531.89 534.44C2530.31 545.226 2527.74 555.912 2522.89 565.807C2518.83 574.218 2512.1 581.938 2502.9 584.906C2498.15 586.786 2493.01 586.391 2487.96 586.391C2471.33 586.391 2454.71 586.587 2438.09 586.391C2435.42 598.563 2433.64 611.03 2431.26 623.399C2426.91 647.444 2422.66 671.589 2418.3 695.735C2418.2 696.528 2418.1 698.209 2418.1 699.099V699.198C2374.86 699.198 2331.72 699.299 2288.48 699.198C2288.58 698.804 2288.68 698.11 2288.78 697.714C2288.88 697.219 2288.98 696.131 2289.08 695.538C2289.18 696.331 2289.28 697.815 2289.38 698.507C2292.05 698.804 2296.9 700.188 2297.59 696.331C2304.32 659.915 2310.55 623.301 2317.48 586.885C2314.81 586.292 2312.04 586.292 2309.27 586.786C2308.87 588.172 2308.47 589.556 2307.98 590.941L2308.57 586.488C2281.66 586.388 2254.65 586.489 2227.74 586.388C2221.2 586.193 2214.48 586.388 2207.95 585.597C2196.77 585.102 2185.49 585.498 2174.3 584.408C2160.45 584.408 2146.7 583.123 2132.85 583.123C2121.96 582.035 2110.98 582.429 2100 581.935C2092.87 581.046 2085.55 581.44 2078.33 581.144C2066.55 579.857 2054.58 580.75 2042.81 579.461C2030.34 579.562 2017.87 578.471 2005.41 578.175C2005.51 578.076 2005.6 577.681 2005.6 577.582C2009.76 577.681 2013.82 577.383 2017.97 577.284C2027.17 576.097 2036.48 576.888 2045.68 575.603C2055.27 575.603 2064.77 574.315 2074.37 574.315C2082.88 573.129 2091.49 573.82 2100 572.634C2109.99 572.634 2119.79 571.347 2129.78 571.249C2137.99 570.16 2146.31 570.754 2154.52 569.665C2164.12 569.764 2173.61 568.28 2183.21 568.378C2192.61 567.287 2202.21 567.585 2211.61 566.596C2210.72 562.935 2210.02 559.275 2209.23 555.612C2208.54 553.335 2205.77 553.83 2203.99 553.534C2182.52 550.464 2161.15 547.398 2139.77 544.429C2141.16 543.339 2143.04 543.833 2144.62 543.638C2161.25 542.349 2177.77 540.865 2194.39 539.68C2198.15 539.481 2201.81 538.79 2205.57 538.691C2203.89 533.544 2202.9 527.905 2200.63 523.154C2165.11 517.711 2129.58 512.863 2094.16 507.025C2103.36 505.541 2112.66 504.847 2121.87 503.858C2161.44 503.858 2201.02 504.156 2240.6 503.957C2245.25 503.661 2249.8 504.749 2254.45 504.552C2276.22 504.749 2297.99 504.85 2319.76 504.946C2324.7 504.946 2329.75 505.244 2334.7 504.749C2337.77 484.959 2341.62 465.365 2344.99 445.675C2352.01 408.961 2366.56 372.943 2391.3 344.545C2405.15 327.919 2422.27 314.066 2441.26 303.576C2452.24 297.246 2464.31 292.991 2476.38 289.33Z" fill="#107BD4" stroke="#107BD4" stroke-width="0.094"/>
<path d="M2455.21 494.065C2474.01 494.166 2492.91 493.966 2511.81 494.166C2519.33 494.166 2527.04 498.321 2530.11 505.445C2522.99 505.94 2515.86 505.546 2508.74 505.743C2490.04 505.546 2471.33 505.844 2452.64 505.546C2453.33 501.686 2454.02 497.728 2455.21 494.065ZM2309.26 586.786C2312.03 586.292 2314.81 586.292 2317.48 586.885C2310.55 623.302 2304.32 659.915 2297.59 696.331C2296.89 700.188 2292.05 698.805 2289.37 698.507C2289.27 697.815 2289.18 696.331 2289.08 695.538C2295.31 660.707 2301.35 625.775 2307.98 590.945C2308.47 589.556 2308.87 588.173 2309.26 586.786Z" fill="#0D69B3" stroke="#0D69B3" stroke-width="0.094"/>
<path d="M2463.86 152.918C2463.07 151.433 2462.97 149.652 2462.97 147.97L2462.18 148.069C2460.99 143.715 2457.33 139.559 2452.58 139.361C2449.02 139.064 2444.57 139.163 2442.49 142.528C2438.53 147.871 2440.41 154.699 2440.22 160.735C2440.22 161.131 2440.32 161.824 2440.32 162.219C2440.32 166.277 2439.82 170.235 2439.13 174.193C2438.53 175.38 2438.24 176.667 2438.24 178.052C2436.56 187.354 2433.19 196.557 2428.64 204.968C2427.75 206.155 2427.06 207.442 2426.76 208.827C2423.79 213.972 2420.23 218.722 2416.57 223.472C2415.98 223.967 2415.48 224.561 2414.99 225.154C2412.41 228.321 2409.64 230.993 2406.77 233.763C2406.08 234.159 2405.59 234.654 2404.99 235.05C2401.63 238.315 2397.87 241.383 2393.81 243.857C2393.32 244.154 2392.82 244.549 2392.23 244.945C2366.9 261.668 2336.13 268.595 2306.14 268.892C2280.72 269.684 2255.09 264.241 2232.13 253.257C2231.74 253.059 2230.75 252.664 2230.35 252.466C2226.49 250.388 2222.53 248.606 2218.97 246.034C2218.18 245.638 2217.39 245.143 2216.5 244.747C2212.84 242.57 2209.37 240.195 2206.11 237.425C2205.02 236.435 2203.83 235.643 2202.65 234.753C2199.08 231.883 2195.42 228.816 2192.36 225.352C2191.57 224.462 2190.77 223.67 2189.98 222.878C2179.2 211.697 2170.79 198.041 2166.34 183.198C2162.08 171.422 2162.67 158.558 2162.18 146.189C2158.62 140.746 2151.1 137.679 2145.16 141.043C2142.69 142.824 2142.39 146.09 2140.51 148.366C2137.44 181.021 2151.4 213.577 2173.66 237.128C2173.66 237.919 2174.05 238.414 2174.75 238.711C2178.71 242.372 2182.56 246.133 2186.52 249.695C2187.21 250.388 2188.01 251.08 2188.9 251.674C2192.85 254.94 2197.11 257.908 2201.26 260.976C2202.06 261.569 2202.85 262.064 2203.74 262.559C2209.18 265.726 2214.32 269.486 2220.16 271.663C2220.56 271.96 2221.25 272.454 2221.65 272.652C2240.45 281.657 2260.73 287.792 2281.51 289.771C2283.78 289.771 2286.06 289.969 2288.34 290.464C2298.23 291.058 2308.13 290.761 2318.02 290.563C2348.59 287.891 2380.16 280.47 2405.69 262.46L2405.98 262.856C2406.77 262.163 2407.47 261.569 2408.26 260.976C2412.32 258.007 2416.28 254.841 2420.23 251.575C2421.12 250.882 2422.11 250.091 2423 249.2C2427.36 244.45 2432.4 240.096 2436.06 234.654L2436.66 234.951C2436.95 234.456 2437.45 233.466 2437.75 232.972C2441.11 228.42 2444.18 223.67 2447.15 218.92C2447.34 218.623 2447.84 218.129 2448.04 217.832L2447.64 217.436C2447.94 217.04 2448.63 216.248 2448.93 215.853C2454.37 204.77 2459.22 193.192 2460.9 180.922C2461.59 180.625 2461.99 180.031 2461.99 179.339C2462.09 175.38 2463.48 171.62 2463.08 167.662C2463.96 162.813 2464.06 157.865 2463.86 152.918Z" fill="white" stroke="white" stroke-width="0.094"/>
<mask id="mask0_2128_2927" style="mask-type:luminance" maskUnits="userSpaceOnUse" x="2140" y="139" width="324" height="152">
<path d="M2463.86 152.918C2463.07 151.433 2462.97 149.652 2462.97 147.97L2462.18 148.069C2460.99 143.715 2457.33 139.559 2452.58 139.361C2449.02 139.064 2444.57 139.163 2442.49 142.528C2438.53 147.871 2440.41 154.699 2440.22 160.735C2440.22 161.131 2440.32 161.824 2440.32 162.219C2440.32 166.277 2439.82 170.235 2439.13 174.193C2438.53 175.38 2438.24 176.667 2438.24 178.052C2436.56 187.354 2433.19 196.557 2428.64 204.968C2427.75 206.155 2427.06 207.442 2426.76 208.827C2423.79 213.972 2420.23 218.722 2416.57 223.472C2415.98 223.967 2415.48 224.561 2414.99 225.154C2412.41 228.321 2409.64 230.993 2406.77 233.763C2406.08 234.159 2405.59 234.654 2404.99 235.05C2401.63 238.315 2397.87 241.383 2393.81 243.857C2393.32 244.154 2392.82 244.549 2392.23 244.945C2366.9 261.668 2336.13 268.595 2306.14 268.892C2280.72 269.684 2255.09 264.241 2232.13 253.257C2231.74 253.059 2230.75 252.664 2230.35 252.466C2226.49 250.388 2222.53 248.606 2218.97 246.034C2218.18 245.638 2217.39 245.143 2216.5 244.747C2212.84 242.57 2209.37 240.195 2206.11 237.425C2205.02 236.435 2203.83 235.643 2202.65 234.753C2199.08 231.883 2195.42 228.816 2192.36 225.352C2191.57 224.462 2190.77 223.67 2189.98 222.878C2179.2 211.697 2170.79 198.041 2166.34 183.198C2162.08 171.422 2162.67 158.558 2162.18 146.189C2158.62 140.746 2151.1 137.679 2145.16 141.043C2142.69 142.824 2142.39 146.09 2140.51 148.366C2137.44 181.021 2151.4 213.577 2173.66 237.128C2173.66 237.919 2174.05 238.414 2174.75 238.711C2178.71 242.372 2182.56 246.133 2186.52 249.695C2187.21 250.388 2188.01 251.08 2188.9 251.674C2192.85 254.94 2197.11 257.908 2201.26 260.976C2202.06 261.569 2202.85 262.064 2203.74 262.559C2209.18 265.726 2214.32 269.486 2220.16 271.663C2220.56 271.96 2221.25 272.454 2221.65 272.652C2240.45 281.657 2260.73 287.792 2281.51 289.771C2283.78 289.771 2286.06 289.969 2288.34 290.464C2298.23 291.058 2308.13 290.761 2318.02 290.563C2348.59 287.891 2380.16 280.47 2405.69 262.46L2405.98 262.856C2406.77 262.163 2407.47 261.569 2408.26 260.976C2412.32 258.007 2416.28 254.841 2420.23 251.575C2421.12 250.882 2422.11 250.091 2423 249.2C2427.36 244.45 2432.4 240.096 2436.06 234.654L2436.66 234.951C2436.95 234.456 2437.45 233.466 2437.75 232.972C2441.11 228.42 2444.18 223.67 2447.15 218.92C2447.34 218.623 2447.84 218.129 2448.04 217.832L2447.64 217.436C2447.94 217.04 2448.63 216.248 2448.93 215.853C2454.37 204.77 2459.22 193.192 2460.9 180.922C2461.59 180.625 2461.99 180.031 2461.99 179.339C2462.09 175.38 2463.48 171.62 2463.08 167.662C2463.96 162.813 2464.06 157.865 2463.86 152.918V152.918Z" fill="white"/>
</mask>
<g mask="url(#mask0_2128_2927)">
<path d="M2132.91 149.575C2140.93 152.091 2159.36 145.76 2164.57 151.554M2137.53 173.983C2145.21 171.308 2161.7 164.975 2168.53 168.706M2145.44 198.392C2149.16 199.595 2156.48 193.067 2160.12 191.154C2165.53 188.307 2171.09 186.126 2177.11 185.198M2157.32 224.12C2161.15 218.674 2165.74 214.15 2171.27 210.281C2176.76 206.448 2191.77 196.205 2198.21 199.711M2168.53 242.592C2172.88 239.133 2174.65 233.016 2179.22 229.382C2184.74 224.987 2193.21 224.198 2198.87 221.481M2187.17 256.279C2188.47 246.712 2198.18 235.167 2207.45 235.993M2201.51 269.639C2206.41 269.148 2210.55 258.184 2213.87 254.468C2218.83 248.902 2223.97 247.19 2230.54 245.23M2229.88 281.513C2229.56 274.591 2236.71 254.741 2245.05 255.785M2250.99 288.111C2250.64 279.929 2254.87 255.32 2264.84 254.466M2272.75 301.304C2270.86 289.863 2270.99 273.312 2280.01 265.021M2299.8 303.943C2298.79 294.406 2289.32 275.127 2299.8 267.66M2328.82 297.346C2324.3 292.101 2321.67 271.409 2323.54 265.681M2356.53 292.728C2353.04 286.392 2348.71 280.442 2347.39 273.086C2346.6 268.691 2347.99 262.429 2347.29 259.083M2379.61 282.832C2372.05 277.882 2369.95 259.686 2372.36 251.827M2402.04 272.937C2396.66 261.388 2390.92 252.434 2390.83 239.293M2423.81 251.827C2415.45 246.2 2404.77 235.97 2406 224.78M2446.9 234.015C2434.19 231.199 2418.94 219.826 2411.28 209.606M2457.45 212.245C2448.28 210.279 2417.99 198.459 2419.85 186.517M2467.35 189.156C2454.57 184.473 2435.99 180.262 2425.79 171.345M2473.94 168.046C2465.9 168.734 2454.37 164.839 2446.19 163.427C2437.11 161.861 2428.69 158.8 2419.85 156.83M2466.03 147.596C2450.51 148.525 2435.94 143.214 2421.83 138.36" stroke="#D1D1D1" stroke-width="2"/>
</g>
<path d="M480.225 195.176C494.565 193.012 511.066 191.659 523.239 200.586C530.814 206.266 533.519 216.547 532.978 225.748C533.519 240.897 526.486 257.131 512.962 264.978C501.057 271.471 486.72 272.01 473.463 270.658C464.536 269.577 455.609 264.709 451.01 256.592C440.727 233.053 453.443 199.775 480.225 195.176ZM51.1666 212.221C51.9769 204.103 59.2821 196.799 67.6678 197.071C130.162 197.071 192.383 197.34 254.605 197.071C261.368 196.529 268.673 199.504 271.918 205.456C276.516 213.573 272.459 222.501 271.918 230.889C270.026 242.25 270.565 257.403 257.311 261.73C211.862 263.083 166.412 261.73 120.962 262.272C116.634 290.948 112.576 319.356 108.247 347.764C108.247 348.847 108.519 351.284 108.519 352.362C141.793 352.093 175.068 352.362 208.342 352.093C217.541 351.552 227.278 359.401 226.467 369.138C225.657 379.149 223.492 388.888 222.14 398.9C221.056 405.662 215.646 411.885 208.612 413.238C171.549 414.049 133.945 412.427 96.8856 414.049C90.932 454.903 83.8979 495.754 77.6752 536.609C76.8658 544.726 70.371 551.76 62.2555 552.028C46.837 552.3 31.4149 552.3 15.9964 552.028C5.987 552.3 -2.12959 541.205 0.574599 531.737C17.0817 425.144 34.1241 318.819 51.1666 212.221ZM326.022 197.609C340.091 196.528 354.428 197.34 368.497 197.071C377.155 196.529 385.811 203.292 386.621 212.221C386.621 219.253 384.727 226.289 383.917 233.323C372.554 305.831 360.922 378.34 349.558 450.848C347.935 462.481 344.96 474.925 348.477 486.83C352.535 498.733 370.658 493.593 374.988 506.037C377.693 516.048 374.716 526.599 373.904 536.881C373.094 550.408 357.673 553.383 347.125 556.363C324.131 560.691 296.263 557.444 279.761 538.503C267.858 524.708 267.046 505.226 269.483 487.913C283.82 395.926 298.157 303.939 312.768 211.679C313.58 204.915 318.989 198.693 326.022 197.609ZM863.022 212.221C863.832 204.103 871.138 197.071 879.253 197.071H920.374C930.654 196.799 939.042 207.892 936.606 217.63C927.138 277.694 917.4 337.757 907.932 397.816C922.269 395.653 938.502 392.947 948.511 381.314C965.282 362.374 979.082 340.463 989.36 317.466C992.876 308.537 994.771 295.551 1006.4 293.927C1021.82 293.386 1037.51 293.656 1052.93 293.927C1063.49 293.656 1071.33 305.56 1067.81 315.299C1063.76 329.642 1056.99 342.896 1049.96 355.613C1034.27 381.045 1016.96 406.205 994.229 426.226C1004.24 456.256 1016.96 485.477 1028.05 514.968C1031.29 524.707 1039.14 536.069 1031.83 545.541C1023.45 556.903 1007.76 551.219 996.123 552.571C983.949 551.219 966.365 557.442 959.601 543.645C946.886 514.154 936.337 483.855 923.35 454.363C915.775 454.632 907.931 454.905 900.355 454.093C899.816 455.176 898.733 457.338 898.191 458.423C894.132 485.477 889.805 512.533 885.475 539.586C883.851 546.079 878.711 551.762 871.679 552.303C857.342 552.845 842.733 552.571 828.124 552.571C821.9 552.571 816.221 548.514 813.515 543.104C810.81 537.69 812.431 531.47 813.247 525.518C830.017 421.085 846.519 316.652 863.022 212.221ZM1614.82 241.711C1616.72 234.133 1624.02 228.994 1631.59 229.263C1642.42 229.536 1653.51 228.994 1664.6 229.536C1673.53 229.805 1680.56 238.733 1679.48 247.391C1677.85 262.813 1674.06 278.235 1672.98 293.654C1683.53 293.654 1694.35 293.385 1704.91 293.654C1714.38 293.654 1722.22 303.395 1720.6 312.592C1719.24 320.982 1717.35 329.099 1716 337.483C1714.64 344.519 1708.69 350.2 1701.93 351.282C1688.95 352.093 1676.23 350.741 1663.52 352.093C1658.11 388.345 1652.15 424.598 1646.47 460.856C1645.66 469.242 1645.12 478.71 1649.99 486.016C1657.29 494.945 1670.01 491.696 1680.29 492.78C1688.4 495.214 1693.54 504.144 1692.19 512.263C1690.84 521.458 1690.57 530.658 1688.4 539.585C1685.16 549.594 1673.53 551.49 1664.6 553.923C1639.98 560.419 1611.57 560.419 1589.66 546.078C1569.37 532.279 1566.13 505.495 1568.29 482.768C1573.97 438.938 1582.9 395.381 1587.77 351.281C1580.19 351.55 1570.99 352.634 1565.32 345.869C1558.82 339.107 1562.07 329.095 1563.15 320.706C1564.77 311.778 1564.5 300.145 1574.24 295.275C1582.09 292.297 1591.02 294.464 1599.4 293.381C1604.54 276.069 1609.41 258.755 1614.82 241.711ZM1461.97 329.367C1479.02 312.323 1499.57 298.254 1523.11 291.222C1533.39 286.621 1546.65 295.28 1546.38 306.643C1544.48 321.523 1540.97 336.131 1538.53 350.741C1537.45 358.046 1531.23 364.27 1523.92 365.081C1497.41 369.678 1474.42 385.639 1456.02 404.58C1451.42 410.264 1444.66 415.673 1443.85 423.518C1438.17 461.395 1432.21 499.273 1426.26 537.15C1425.45 545.265 1418.42 553.114 1410.03 552.573H1368.91C1359.44 553.114 1351.06 543.646 1352.14 534.175C1364.04 459.231 1375.95 384.561 1387.58 309.616C1388.12 302.042 1393.53 294.737 1401.37 293.925C1411.38 293.384 1421.39 293.654 1431.67 293.654C1439.79 293.654 1447.36 300.959 1447.36 309.347C1447.36 320.98 1446.28 332.883 1446.01 344.787C1452.5 340.732 1456.56 334.238 1461.97 329.367ZM450.737 295.008C465.345 292.033 480.495 294.468 495.103 293.655C503.491 292.574 512.418 297.984 513.769 306.372C514.854 313.946 512.686 321.252 511.874 328.558C500.785 398.091 489.691 467.621 478.87 537.152C478.059 545.002 471.569 552.846 463.18 552.573C448.573 552.573 433.963 552.846 419.086 552.305C409.887 551.221 403.123 540.672 405.559 531.742C417.192 459.507 428.285 387.539 439.917 315.3C440.458 307.454 442.622 298.254 450.737 295.008ZM1326.17 298.527C1285.86 290.949 1244.74 285.539 1203.89 289.597C1167.37 294.197 1130.57 310.702 1108.12 340.732C1077.01 380.232 1066.46 433.261 1073.49 482.503C1077.28 506.039 1087.56 529.849 1106.77 544.457C1124.62 558.256 1148.7 560.148 1170.34 556.632C1200.64 550.679 1226.34 531.203 1247.44 509.557C1248.52 518.755 1246.36 527.955 1246.9 536.883C1247.44 545.268 1255.02 553.114 1263.4 552.573H1291C1299.11 552.573 1305.88 545.001 1306.42 537.151C1318.05 463.832 1329.68 390.782 1341.05 317.735C1342.67 308.536 1335.37 299.608 1326.17 298.527ZM1250.15 425.956C1239.33 446.247 1224.18 464.645 1207.13 480.334C1197.4 488.451 1184.95 496.84 1171.7 494.135C1158.71 491.43 1152.49 477.903 1149.51 466.268C1142.75 435.967 1148.97 402.958 1166.01 376.716C1173.59 364.539 1185.76 355.342 1199.83 351.553C1219.58 346.682 1240.41 349.118 1259.62 354.529L1260.7 355.613C1258.27 379.149 1253.67 402.417 1250.15 425.956ZM795.121 385.374C794.849 358.318 787.545 329.911 768.609 309.618C755.624 295.28 736.145 287.975 717.209 288.243C685.826 287.163 656.339 302.585 633.345 323.145C628.203 327.205 624.687 333.157 619.008 336.403C619.008 327.472 619.818 318.546 619.546 309.348C619.818 300.959 611.972 293.655 603.856 293.655H576.261C567.607 293.655 560.572 301.232 560.03 309.617C542.987 417.838 525.675 526.059 508.631 634.28C506.198 644.289 514.856 654.572 525.135 654.3C540.284 654.03 555.704 655.383 570.583 653.216C582.487 649.969 582.215 636.171 584.11 626.162C588.437 602.352 591.415 578.544 594.119 554.464C647.413 564.745 709.364 557.713 749.132 517.399C781.594 481.96 796.742 432.989 795.121 385.374ZM719.373 412.698C717.751 437.589 708.822 462.751 691.51 480.875C669.057 502.251 634.967 499.273 607.374 491.971C606.836 491.158 606.021 489.534 605.751 488.724C610.079 465.186 612.244 441.377 617.655 418.11C632.805 393.221 651.199 368.057 677.44 354.26C687.18 349.662 700.435 350.744 707.47 359.672C719.373 374.552 720.455 394.572 719.373 412.698Z" fill="#107BD4" stroke="#107BD4" stroke-width="0.101"/>
</g>
<defs>
<linearGradient id="paint0_linear_2128_2927" x1="2301.99" y1="118.336" x2="2301.99" y2="699.954" gradientUnits="userSpaceOnUse">
<stop stop-color="#F7E830"/>
<stop offset="1" stop-color="#FDCB06"/>
</linearGradient>
<radialGradient id="paint1_radial_2128_2927" cx="0" cy="0" r="1" gradientUnits="userSpaceOnUse" gradientTransform="translate(2298.96 383.612) scale(473.04 473.08)">
<stop offset="0.596" stop-color="#F29405"/>
<stop offset="0.736" stop-color="#F7D01E"/>
<stop offset="1" stop-color="#FDCB06"/>
</radialGradient>
<linearGradient id="paint2_linear_2128_2927" x1="2463.82" y1="139.327" x2="2463.98" y2="166.869" gradientUnits="userSpaceOnUse">
<stop stop-color="#FADA1C"/>
<stop offset="1" stop-color="#FDCB06"/>
</linearGradient>
<linearGradient id="paint3_linear_2128_2927" x1="2139.88" y1="138.009" x2="2139.72" y2="165.551" gradientUnits="userSpaceOnUse">
<stop stop-color="#FADA1C"/>
<stop offset="1" stop-color="#FDCB06"/>
</linearGradient>
<clipPath id="clip0_2128_2927">
<rect width="2655" height="700" fill="white"/>
</clipPath>
</defs>
</svg>
