<svg width="2529" height="700" viewBox="0 0 2529 700" fill="none" xmlns="http://www.w3.org/2000/svg">
<path d="M2347.08 270.188C2391.66 255.145 2441.25 245.395 2487.49 260.16C2513.96 269.074 2528.16 297.21 2527.89 323.953C2528.44 378.833 2529 433.712 2527.05 488.591C2511.17 488.591 2495.29 488.591 2479.69 488.312C2477.74 479.677 2476.07 471.041 2474.12 462.405C2444.59 485.805 2405.31 502.52 2367.42 488.591C2324.52 471.598 2319.23 407.247 2351.54 377.44C2384.14 347.354 2430.94 347.075 2471.89 337.882C2469.38 323.953 2467.15 306.125 2450.72 302.224C2417.84 292.474 2384.69 307.239 2353.21 316.153C2350.71 301.11 2348.76 285.789 2347.08 270.188ZM2399.46 397.497C2384.14 409.754 2383.3 439.562 2403.36 447.362C2427.59 456.555 2451 440.119 2469.94 427.026C2469.94 409.197 2469.94 391.368 2469.66 373.54C2445.7 377.718 2418.68 380.504 2399.46 397.497ZM1111.28 160.43C1137.74 158.758 1164.49 158.758 1191.23 159.316C1222.71 239.267 1243.05 323.675 1277.04 402.79C1305.17 322.003 1331.08 240.659 1358.66 159.873C1385.13 159.037 1411.59 159.037 1438.06 159.873C1445.86 269.631 1457 379.39 1461.74 489.148H1400.45C1393.21 410.869 1389.86 332.032 1382.06 253.752C1350.58 330.639 1328.3 411.426 1299.6 489.427C1280.38 490.262 1261.16 489.984 1241.93 489.148C1214.35 411.147 1192.07 330.918 1159.19 254.867C1152.51 332.868 1149.44 411.426 1142.2 489.427C1123.81 489.427 1105.43 489.427 1087.04 489.148C1092.33 379.111 1103.76 269.91 1111.28 160.43ZM2021.42 185.223C2039.8 181.323 2058.75 178.816 2077.41 177.144C2077.97 203.609 2077.97 230.074 2077.97 256.817C2093.29 257.095 2108.89 257.931 2124.49 258.21C2127.56 273.253 2130.07 288.574 2132.29 303.896C2114.19 304.732 2096.36 305.567 2078.53 305.846C2078.81 345.961 2075.74 386.354 2079.92 426.469C2085.77 445.969 2111.12 440.398 2126.44 444.019C2129.51 459.341 2131.74 474.941 2133.41 490.541C2104.16 493.605 2071.28 497.505 2045.1 480.791C2027.82 469.369 2022.53 447.919 2021.7 428.697C2019.47 388.026 2022.25 347.354 2020.58 306.682C2010 305.567 1999.13 304.453 1988.54 303.339C1988.82 288.574 1989.38 274.088 1989.94 259.324C2000.24 258.488 2010.55 257.374 2021.14 256.538C2020.58 232.581 2020.86 208.902 2021.42 185.223ZM1496.56 262.945C1516.34 259.045 1536.4 256.817 1556.46 255.703C1574.57 308.632 1590.45 362.397 1609.11 415.047C1628.05 363.79 1642.82 310.86 1659.53 258.767C1678.76 257.653 1697.7 257.095 1716.92 257.374C1695.47 327.575 1667.61 395.547 1643.93 465.191C1631.4 497.227 1623.6 533.442 1597.41 557.678C1575.96 577.178 1545.04 578.013 1518.01 573.278C1515.51 557.956 1513 542.635 1510.49 527.591C1523.86 527.313 1537.24 528.149 1550.33 525.92C1568.16 519.791 1583.76 498.341 1575.68 479.398C1549.77 406.969 1521.36 335.653 1496.56 262.945ZM1754.25 257.653C1770.41 257.653 1786.57 257.931 1802.45 258.21C1804.68 268.238 1806.63 278.267 1808.86 288.296C1833.65 267.96 1863.18 248.181 1897.17 253.752C1926.7 254.867 1950.1 281.61 1950.66 310.303C1952.05 369.64 1951.21 429.255 1950.93 488.591C1932.55 488.87 1914.16 489.148 1896.05 489.427C1890.76 435.383 1897.17 381.061 1893.27 327.296C1890.76 305.01 1863.18 299.439 1845.91 308.353C1831.14 315.596 1811.36 325.903 1812.48 345.125C1811.36 393.04 1813.04 440.955 1812.2 488.87C1792.7 489.148 1773.48 489.148 1753.97 488.591C1754.25 411.426 1753.97 334.539 1754.25 257.653ZM2176.59 257.653C2193.03 257.653 2209.46 257.653 2225.9 257.931C2227.85 271.303 2230.08 284.674 2232.31 298.324C2252.64 277.153 2274.93 255.145 2306.13 252.638C2311.15 271.024 2313.93 289.967 2314.49 308.91C2283.84 315.875 2249.02 328.689 2235.37 359.054C2232.59 402.233 2235.93 445.691 2234.26 488.87C2215.03 489.148 2195.81 489.148 2176.59 488.591V257.653Z" fill="#231F20"/>
<path d="M213.396 70.1719C232.897 46.7716 254.07 21.6999 284.157 12.2283C317.866 3.31395 346.56 29.7786 367.733 52.3431C423.171 115.858 463.566 190.795 501.175 266.01C521.512 220.324 546.863 176.866 573.05 134.523C598.123 96.0794 624.031 57.0789 660.248 27.8285C676.963 15.0141 700.085 2.7568 720.979 13.6212C750.509 29.2214 772.796 55.1289 793.69 80.4792C837.985 137.587 872.808 201.381 904.289 266.289C943.569 349.861 977.557 437.055 991.764 528.706C995.943 571.049 999.843 618.686 974.214 655.736C954.434 684.708 916.825 694.737 883.395 688.886C854.422 678.579 829.07 659.636 810.127 635.679C764.996 579.964 738.252 512.549 713.457 445.969C709.836 434.269 705.378 422.848 701.478 411.426C698.971 423.126 695.628 434.826 691.728 446.248C666.376 513.663 639.354 582.471 592.83 638.464C574.165 661.308 549.649 678.858 521.791 688.886C481.674 697.244 442.951 676.351 417.042 646.822C366.34 591.664 338.203 520.349 312.294 450.984C307.28 436.776 302.265 422.569 298.644 407.805C294.465 422.569 289.45 437.333 284.157 451.541C260.756 515.334 234.012 579.685 191.667 633.45C168.544 661.029 138.457 688.051 100.848 690.001C66.0246 693.065 32.3157 670.501 18.9436 638.743C-0.000200478 594.728 5.57151 545.142 13.9291 499.177C32.0371 411.426 65.4674 327.575 105.027 247.624C135.392 185.502 169.937 124.773 213.396 70.1719ZM233.176 89.6721C190.274 144.273 156.008 205.559 125.363 267.681C87.1971 348.19 52.6525 432.041 37.8874 520.349C32.5943 544.863 32.5943 570.214 35.1016 595.007C38.166 618.407 47.3593 643.479 68.8104 655.457C89.4258 667.436 115.891 662.7 134.557 649.329C167.987 625.929 190.274 590.271 209.496 554.892C250.727 476.055 277.75 390.533 298.086 304.453C319.816 392.762 347.117 480.791 390.577 561.299C407.849 591.107 425.957 622.029 454.094 642.643C468.302 655.458 486.967 664.372 506.468 662.143C528.198 659.915 546.306 645.986 561.628 631.221C587.537 604.478 606.481 571.607 623.196 538.735C658.855 465.748 683.37 387.747 702.593 309.189C726.551 404.462 756.36 500.013 807.619 584.7C826.842 614.228 849.407 644.872 883.116 658.8C906.796 668.551 936.883 659.915 950.534 637.907C966.97 611.443 968.363 578.571 965.856 548.485C962.513 499.734 948.305 452.376 932.704 406.133C901.503 316.989 860.551 231.188 810.684 151.237C787.561 115.58 763.603 79.6434 731.287 51.2288C719.865 41.2001 702.871 31.45 688.385 41.4787C660.526 58.4718 641.304 85.4935 621.803 111.122C574.443 178.537 535.441 252.081 503.404 327.854C502.568 328.968 500.339 331.196 499.504 332.311C496.718 323.675 493.932 315.318 490.31 306.96C457.437 235.924 420.943 166.002 374.419 103.044C358.539 82.1506 342.103 60.9789 320.652 45.6573C311.458 39.2501 299.201 33.4 288.336 38.9715C265.213 49.5574 249.055 70.4505 233.176 89.6721Z" fill="#FEFEFE"/>
<path d="M233.176 89.6714C249.055 70.4497 265.492 49.8352 288.614 39.2494C299.479 33.6779 311.737 39.2494 320.93 45.9352C342.381 61.2568 358.818 82.707 374.697 103.322C420.943 166.558 457.716 236.202 490.589 307.238C494.489 315.317 497.275 323.953 499.782 332.589C456.88 259.881 417.878 184.387 364.39 118.643C348.789 100.257 332.352 80.757 309.787 71.0069C296.972 65.4354 283.878 72.6784 273.292 79.6427C234.847 111.957 206.432 154.022 179.687 195.808C116.727 296.095 69.3676 406.132 38.166 520.348C52.9311 432.04 87.1971 348.189 125.642 267.681C156.008 205.559 190.274 144.272 233.176 89.6714ZM688.385 41.1994C702.871 31.1707 719.865 40.9208 731.287 50.9495C763.603 79.0856 787.561 115.022 810.684 150.958C860.551 231.187 901.781 316.71 932.704 405.854C948.305 452.097 962.513 499.176 965.856 548.205C960.563 514.219 951.648 480.79 940.226 448.476C910.696 359.61 869.744 274.366 820.156 194.973C798.426 160.987 775.303 127.279 747.445 98.3072C736.301 87.1642 724.322 75.4641 709 70.4497C697.021 66.8283 686.156 75.1855 676.406 81.0356C650.497 101.372 630.439 127.558 611.217 154.022C577.229 202.216 546.863 252.916 519.562 305.01C515.105 313.367 509.533 321.167 503.404 328.131C535.441 252.081 574.443 178.815 621.803 111.4C641.304 85.4928 660.805 58.1925 688.385 41.1994Z" fill="#9E242E"/>
<path d="M273.292 79.6437C283.879 72.6793 296.972 65.4364 309.787 71.0079C332.353 80.758 348.789 100.258 364.39 118.644C417.878 184.388 456.88 259.882 499.504 332.59C472.76 408.64 441.001 484.97 439.051 566.592C437.658 592.778 444.623 618.407 454.373 642.643C426.236 622.029 407.849 591.107 390.856 561.299C347.675 480.791 320.095 393.04 298.365 304.454C282.764 230.91 268.278 155.695 273.292 79.6437Z" fill="#FF912E"/>
<path d="M676.684 80.7575C686.434 74.9074 697.299 66.5502 709.279 70.1716C724.601 75.186 736.58 86.8861 747.723 98.0291C775.582 127.279 798.704 160.708 820.434 194.695C870.022 274.088 910.975 359.332 940.505 448.198C952.205 480.512 960.841 513.941 966.134 547.927C968.642 578.013 967.249 610.885 950.812 637.35C937.162 659.636 907.353 667.993 883.395 658.243C849.686 644.593 827.12 613.671 807.898 584.142C756.638 499.734 726.829 404.183 702.871 308.632C686.713 234.252 671.669 157.923 676.684 80.7575ZM179.687 195.809C206.431 154.023 234.847 111.958 273.292 79.6432C268.277 155.416 282.764 230.909 298.643 304.453C278.307 390.811 251.005 476.055 210.053 554.892C190.831 590.271 168.544 625.928 135.114 649.329C116.448 662.7 89.9827 667.436 69.3674 655.457C47.9163 643.478 38.723 618.128 35.6585 595.006C32.8727 570.213 33.1512 544.863 38.4444 520.348C69.0888 406.133 116.727 296.096 179.687 195.809Z" fill="#F41CB2"/>
<path d="M611.496 153.744C630.718 127.28 650.776 101.094 676.685 80.7578C671.67 157.644 686.714 234.253 703.15 308.911C683.928 387.747 659.134 465.47 623.753 538.456C607.038 571.606 588.095 604.2 562.186 630.943C547.142 645.707 528.756 659.636 507.026 661.865C487.525 664.093 468.86 655.179 454.652 642.364C444.902 618.128 437.937 592.5 439.33 566.314C441.28 484.691 473.039 408.083 499.783 332.311C500.619 331.197 502.847 328.968 503.683 327.854C509.812 320.611 515.384 313.089 519.841 304.732C547.421 252.638 577.508 201.938 611.496 153.744Z" fill="#F25511"/>
</svg>
